<?xml version="1.0" encoding="UTF-8" standalone="no"?>
<svg
   xmlns:dc="http://purl.org/dc/elements/1.1/"
   xmlns:cc="http://creativecommons.org/ns#"
   xmlns:rdf="http://www.w3.org/1999/02/22-rdf-syntax-ns#"
   xmlns:svg="http://www.w3.org/2000/svg"
   xmlns="http://www.w3.org/2000/svg"
   xmlns:sodipodi="http://sodipodi.sourceforge.net/DTD/sodipodi-0.dtd"
   xmlns:inkscape="http://www.inkscape.org/namespaces/inkscape"
   version="1.1"
   id="Icons"
   x="0px"
   y="0px"
   viewBox="0 0 14 14"
   xml:space="preserve"
   sodipodi:docname="build.svg"
   width="14"
   height="14"
   inkscape:version="1.0.1 (3bc2e813f5, 2020-09-07)"><metadata
   id="metadata13"><rdf:RDF><cc:Work
       rdf:about=""><dc:format>image/svg+xml</dc:format><dc:type
         rdf:resource="http://purl.org/dc/dcmitype/StillImage" /><dc:title></dc:title></cc:Work></rdf:RDF></metadata><defs
   id="defs11" /><sodipodi:namedview
   pagecolor="#ffffff"
   bordercolor="#666666"
   borderopacity="1"
   objecttolerance="10"
   gridtolerance="10"
   guidetolerance="10"
   inkscape:pageopacity="0"
   inkscape:pageshadow="2"
   inkscape:window-width="1920"
   inkscape:window-height="1017"
   id="namedview9"
   showgrid="false"
   inkscape:zoom="16.241359"
   inkscape:cx="15.828679"
   inkscape:cy="14.295807"
   inkscape:window-x="-8"
   inkscape:window-y="-8"
   inkscape:window-maximized="1"
   inkscape:current-layer="Icons" />
<g
   id="g4"
   transform="matrix(0.46097808,0,0,0.46097808,-0.57670968,0.06967869)">
	<path
   d="M 6.6,19.8 C 6.3,19.8 6.1,19.7 5.9,19.5 L 2.2,15.8 C 2,15.6 1.9,15.4 1.9,15.1 1.9,14.8 2,14.6 2.2,14.4 L 3.7,12.9 C 4,12.6 4.4,12.5 4.7,12.7 L 5.5,13 6.1,12.4 c -0.1,-1 0.2,-2.1 1,-2.9 l 4.2,-4.2 c 1.7,-1.7 4,-2.7 6.5,-2.8 h 0.4 c 0.4,0 0.8,0.2 0.9,0.6 0.1,0.4 0.1,0.8 -0.2,1.1 l -0.5,0.5 c -1.3,1.3 -2,3.1 -1.7,4.9 0,0.3 -0.1,0.6 -0.3,0.8 l -4.2,4.2 c -0.8,0.8 -1.8,1.1 -2.9,1 L 8.7,16.2 9,17 c 0.1,0.4 0,0.7 -0.2,1 l -1.5,1.5 c -0.2,0.2 -0.4,0.3 -0.7,0.3 z"
   id="path2"
   style="fill:#3fbb3f;fill-opacity:1" />
</g>
<path
   d="M 12.69946,10.395588 7.536505,5.6475139 5.7386905,7.4453284 c -0.046096,0.046096 -0.046096,0.046096 -0.092191,0.092191 l 4.7941715,5.2090526 c 0.322685,0.322685 0.691468,0.507076 1.152445,0.507076 0,0 0.04609,0 0.04609,0 0.414881,0 0.829762,-0.184391 1.152446,-0.460978 0.322685,-0.322685 0.460978,-0.737566 0.460978,-1.198544 -0.0461,-0.460977 -0.230488,-0.875858 -0.553173,-1.198543 z"
   id="path6"
   style="stroke-width:0.460978;fill:#3fbb3f;fill-opacity:1" />
</svg>
