<?xml version="1.0" encoding="UTF-8" standalone="no"?>
<svg
   xmlns:dc="http://purl.org/dc/elements/1.1/"
   xmlns:cc="http://creativecommons.org/ns#"
   xmlns:rdf="http://www.w3.org/1999/02/22-rdf-syntax-ns#"
   xmlns:svg="http://www.w3.org/2000/svg"
   xmlns="http://www.w3.org/2000/svg"
   xmlns:sodipodi="http://sodipodi.sourceforge.net/DTD/sodipodi-0.dtd"
   xmlns:inkscape="http://www.inkscape.org/namespaces/inkscape"
   viewBox="0 0 14 14"
   version="1.1"
   id="svg4"
   sodipodi:docname="debug.svg"
   inkscape:version="1.0.1 (3bc2e813f5, 2020-09-07)"
   width="14"
   height="14">
  <metadata
     id="metadata10">
    <rdf:RDF>
      <cc:Work
         rdf:about="">
        <dc:format>image/svg+xml</dc:format>
        <dc:type
           rdf:resource="http://purl.org/dc/dcmitype/StillImage" />
        <dc:title></dc:title>
      </cc:Work>
    </rdf:RDF>
  </metadata>
  <defs
     id="defs8" />
  <sodipodi:namedview
     pagecolor="#ffffff"
     bordercolor="#666666"
     borderopacity="1"
     objecttolerance="10"
     gridtolerance="10"
     guidetolerance="10"
     inkscape:pageopacity="0"
     inkscape:pageshadow="2"
     inkscape:window-width="1920"
     inkscape:window-height="1017"
     id="namedview6"
     showgrid="false"
     inkscape:zoom="16.241359"
     inkscape:cx="7.18916"
     inkscape:cy="18.272272"
     inkscape:window-x="-8"
     inkscape:window-y="-8"
     inkscape:window-maximized="1"
     inkscape:current-layer="svg4"
     inkscape:document-rotation="0" />
  <path
     d="m 13.399375,8.0474923 c -0.01201,0.4358325 -0.380496,0.7776476 -0.81648,0.7776476 H 11.199256 V 9.225217 c 0,0.546703 -0.122074,1.064801 -0.340064,1.528916 l 1.505986,1.505985 c 0.31246,0.312484 0.31246,0.819105 0,1.13159 -0.31251,0.312485 -0.819131,0.31246 -1.131615,0 l -1.36866,-1.368659 c -0.6188683,0.50192 -1.4073928,0.802852 -2.2663317,0.802852 V 6.7247404 c 0,-0.1657066 -0.1343507,-0.300057 -0.3000575,-0.300057 H 6.6984002 c -0.1657067,0 -0.3000574,0.1343504 -0.3000574,0.300057 v 6.1011606 c -0.8589388,0 -1.6474632,-0.300932 -2.2663312,-0.802852 l -1.3686598,1.368659 c -0.3125097,0.312485 -0.8191311,0.31246 -1.1316156,0 -0.3124605,-0.312485 -0.3124605,-0.819106 0,-1.13159 L 3.1377225,10.754133 C 2.9197306,10.290018 2.797658,9.77192 2.797658,9.225217 V 8.8251399 H 1.4140441 c -0.435983,0 -0.80452781,-0.3418151 -0.81648021,-0.7776476 C 0.58513889,7.5953058 0.9480063,7.2248365 1.3973921,7.2248365 H 2.797658 V 5.7559315 L 1.6317362,4.5900094 c -0.3124605,-0.3124846 -0.3124605,-0.819106 0,-1.1315907 0.3125097,-0.3124847 0.8191059,-0.3124847 1.1316156,0 L 4.1292857,4.8243788 H 9.867604 l 1.365934,-1.3659341 c 0.312509,-0.3124859 0.819106,-0.3124859 1.131615,0 0.31246,0.3124834 0.31246,0.819106 0,1.1315895 l -1.165897,1.1658973 v 1.468905 h 1.400266 c 0.449387,0 0.812255,0.3704693 0.799853,0.8226558 z M 7.0234619,0.8236177 c -1.5466942,0 -2.8005335,1.2538389 -2.8005335,2.8005335 H 9.823994 c 0,-1.5466946 -1.2538375,-2.8005335 -2.8005321,-2.8005335 z"
     id="path2"
     style="fill:#3fbb3f;fill-opacity:1;stroke-width:0.0250047" />
</svg>
